<svg width="184" height="41" viewBox="0 0 184 41" fill="none" xmlns="http://www.w3.org/2000/svg">
<path d="M5.44 33V5.06H0.24V1H15.22V5.06H10.02V33H5.44ZM16.0053 33V9H20.7053V11.7H21.5853C21.7853 10.6467 22.1853 9.91333 22.7853 9.5C23.3986 9.08666 24.2053 8.88 25.2053 8.88C25.512 8.88 25.812 8.89333 26.1053 8.92C26.3986 8.93333 26.6586 8.94667 26.8853 8.96V12.5H25.2653C23.9586 12.5 22.9253 12.6933 22.1653 13.08C21.4186 13.4667 20.932 14.1467 20.7053 15.12V33H16.0053ZM33.2997 33.28C31.6197 33.28 30.3464 32.8733 29.4797 32.06C28.6264 31.2333 28.1264 29.8933 27.9797 28.04C27.9664 27.76 27.953 27.4467 27.9397 27.1C27.9397 26.7533 27.9464 26.4467 27.9597 26.18C28.0397 25.1533 28.2597 24.26 28.6197 23.5C28.993 22.74 29.5797 22.06 30.3797 21.46C31.1797 20.86 32.253 20.2867 33.5997 19.74C34.3197 19.46 35.033 19.2 35.7397 18.96C36.4597 18.72 37.2264 18.4867 38.0397 18.26V14.4C38.0397 13.6 37.8464 13.02 37.4597 12.66C37.073 12.3 36.4397 12.12 35.5597 12.12C34.7997 12.12 34.2064 12.2733 33.7797 12.58C33.3664 12.8867 33.1397 13.4133 33.0997 14.16C33.0864 14.4267 33.073 14.82 33.0597 15.34C33.0597 15.8467 33.0597 16.34 33.0597 16.82C33.073 17.3 33.0864 17.6267 33.0997 17.8H28.6397C28.6264 17.4267 28.613 16.9533 28.5997 16.38C28.5864 15.8067 28.5864 15.2467 28.5997 14.7C28.6664 13.3 28.9264 12.16 29.3797 11.28C29.8464 10.3867 30.5864 9.72667 31.5997 9.3C32.6264 8.87333 33.9997 8.66 35.7197 8.66C37.4664 8.66 38.833 8.89333 39.8197 9.36C40.8197 9.81333 41.5197 10.54 41.9197 11.54C42.333 12.5267 42.5397 13.8133 42.5397 15.4L42.5197 33H37.9597V30.58H37.2797C36.853 31.4733 36.3597 32.1467 35.7997 32.6C35.253 33.0533 34.4197 33.28 33.2997 33.28ZM34.9797 29.96C35.6597 29.96 36.2597 29.7867 36.7797 29.44C37.2997 29.0933 37.6997 28.6133 37.9797 28L38.0197 21.5C37.4864 21.6467 36.9397 21.82 36.3797 22.02C35.8197 22.2067 35.253 22.4533 34.6797 22.76C33.8264 23.1733 33.2664 23.6733 32.9997 24.26C32.7464 24.8333 32.6064 25.4733 32.5797 26.18C32.5664 26.5267 32.5597 26.8 32.5597 27C32.573 27.2 32.5864 27.44 32.5997 27.72C32.6664 28.4267 32.8997 28.98 33.2997 29.38C33.6997 29.7667 34.2597 29.96 34.9797 29.96ZM48.6522 33L45.0722 9H49.8322L51.2522 21.08L51.9322 29.58H53.3722L54.0722 21.08L55.5322 9H60.2722L56.6322 33H48.6522ZM69.7994 33.34C67.266 33.34 65.4527 32.8533 64.3594 31.88C63.2794 30.9067 62.6727 29.34 62.5394 27.18C62.5127 26.38 62.486 25.44 62.4594 24.36C62.446 23.2667 62.4394 22.1333 62.4394 20.96C62.4394 19.7867 62.446 18.6667 62.4594 17.6C62.486 16.5333 62.5127 15.6267 62.5394 14.88C62.686 12.64 63.3194 11.0467 64.4394 10.1C65.5594 9.14 67.326 8.66 69.7394 8.66C72.1794 8.66 73.9394 9.13333 75.0194 10.08C76.0994 11.0267 76.6927 12.5667 76.7994 14.7C76.8127 15.02 76.8194 15.58 76.8194 16.38C76.8327 17.1667 76.8327 18.0533 76.8194 19.04C76.8194 20.0267 76.7994 20.9533 76.7594 21.82H67.0994C67.0994 22.7533 67.106 23.7067 67.1194 24.68C67.146 25.64 67.1727 26.64 67.1994 27.68C67.226 28.48 67.4394 29.0467 67.8394 29.38C68.2394 29.7 68.886 29.86 69.7794 29.86C70.646 29.86 71.2527 29.7 71.5994 29.38C71.9594 29.0467 72.1594 28.4733 72.1994 27.66C72.226 27.26 72.2394 26.7667 72.2394 26.18C72.2527 25.58 72.2394 24.9 72.1994 24.14H76.7594C76.786 24.4467 76.806 24.92 76.8194 25.56C76.8327 26.2 76.826 26.74 76.7994 27.18C76.6927 29.38 76.0994 30.96 75.0194 31.92C73.9527 32.8667 72.2127 33.34 69.7994 33.34ZM67.1194 18.54H72.2394C72.2527 17.94 72.2594 17.3467 72.2594 16.76C72.2594 16.16 72.2527 15.6333 72.2394 15.18C72.2394 14.7267 72.226 14.4067 72.1994 14.22C72.1594 13.4467 71.946 12.9067 71.5594 12.6C71.186 12.28 70.5794 12.12 69.7394 12.12C68.8194 12.12 68.1727 12.2933 67.7994 12.64C67.426 12.9733 67.226 13.5 67.1994 14.22C67.186 14.9533 67.166 15.68 67.1394 16.4C67.126 17.12 67.1194 17.8333 67.1194 18.54ZM80.2631 33V1H84.8431V33H80.2631ZM104.55 33.34C101.976 33.34 100.116 32.82 98.9697 31.78C97.823 30.7267 97.1964 28.9867 97.0897 26.56C97.0764 25.96 97.0697 25.3667 97.0697 24.78C97.0697 24.1933 97.0764 23.6067 97.0897 23.02C97.1164 22.42 97.1564 21.82 97.2097 21.22H101.55C101.496 22.2867 101.463 23.3333 101.45 24.36C101.436 25.3733 101.47 26.36 101.55 27.32C101.603 28.0933 101.87 28.66 102.35 29.02C102.83 29.3667 103.563 29.54 104.55 29.54C105.47 29.54 106.163 29.3667 106.63 29.02C107.096 28.66 107.363 28.0933 107.43 27.32C107.483 26.8 107.516 26.26 107.53 25.7C107.543 25.14 107.536 24.58 107.51 24.02C107.496 23.46 107.47 22.9267 107.43 22.42C107.39 21.5933 107.163 20.9333 106.75 20.44C106.336 19.9467 105.743 19.6067 104.97 19.42L102.01 18.72C100.77 18.4267 99.7897 17.9867 99.0697 17.4C98.3497 16.8 97.8297 16.0333 97.5097 15.1C97.203 14.1533 97.0297 13.0133 96.9897 11.68C96.9764 10.96 96.9697 10.2467 96.9697 9.54C96.983 8.83333 96.9964 8.12 97.0097 7.4C97.063 5.78667 97.3497 4.48667 97.8697 3.5C98.403 2.51333 99.2097 1.79333 100.29 1.34C101.383 0.886665 102.803 0.659998 104.55 0.659998C107.083 0.659998 108.916 1.18 110.05 2.22C111.183 3.26 111.796 4.99333 111.89 7.42C111.916 8.12667 111.923 8.93333 111.91 9.84C111.896 10.7467 111.87 11.6467 111.83 12.54H107.41C107.45 11.4733 107.476 10.46 107.49 9.5C107.503 8.54 107.49 7.59333 107.45 6.66C107.423 5.88666 107.17 5.32666 106.69 4.98C106.223 4.63333 105.503 4.46 104.53 4.46C103.583 4.46 102.87 4.63333 102.39 4.98C101.923 5.32666 101.656 5.88666 101.59 6.66C101.523 7.51333 101.49 8.35333 101.49 9.18C101.49 9.99333 101.523 10.8267 101.59 11.68C101.643 12.52 101.816 13.1867 102.11 13.68C102.403 14.1733 102.903 14.5 103.61 14.66L106.29 15.24C107.663 15.5467 108.763 16.0067 109.59 16.62C110.416 17.22 111.016 18 111.39 18.96C111.776 19.92 111.996 21.0733 112.05 22.42C112.063 22.8467 112.07 23.3 112.07 23.78C112.07 24.26 112.063 24.74 112.05 25.22C112.036 25.6867 112.023 26.1333 112.01 26.56C111.916 28.9867 111.29 30.7267 110.13 31.78C108.983 32.82 107.123 33.34 104.55 33.34ZM115.654 41V9H120.314V11.4H121.014C121.547 10.4933 122.12 9.81333 122.734 9.36C123.347 8.89333 124.274 8.66 125.514 8.66C127.114 8.66 128.34 9.11333 129.194 10.02C130.047 10.9267 130.514 12.44 130.594 14.56C130.62 15.3067 130.64 16.2533 130.654 17.4C130.68 18.5467 130.694 19.7533 130.694 21.02C130.694 22.2867 130.68 23.4933 130.654 24.64C130.64 25.7733 130.62 26.7067 130.594 27.44C130.514 29.5467 130.007 31.06 129.074 31.98C128.14 32.8867 126.874 33.34 125.274 33.34C124.327 33.34 123.527 33.1333 122.874 32.72C122.22 32.2933 121.6 31.58 121.014 30.58H120.314V41H115.654ZM123.494 29.96C124.254 29.96 124.84 29.7867 125.254 29.44C125.68 29.0933 125.907 28.5533 125.934 27.82C126 26.54 126.04 25.3067 126.054 24.12C126.08 22.9333 126.094 21.78 126.094 20.66C126.094 19.5267 126.08 18.42 126.054 17.34C126.027 16.2467 125.987 15.1533 125.934 14.06C125.907 13.38 125.72 12.8733 125.374 12.54C125.027 12.2067 124.487 12.04 123.754 12.04C123.007 12.04 122.314 12.22 121.674 12.58C121.047 12.9267 120.594 13.42 120.314 14.06V27.92C120.634 28.6667 121.047 29.1933 121.554 29.5C122.06 29.8067 122.707 29.96 123.494 29.96ZM138.886 33.28C137.206 33.28 135.932 32.8733 135.066 32.06C134.212 31.2333 133.712 29.8933 133.566 28.04C133.552 27.76 133.539 27.4467 133.526 27.1C133.526 26.7533 133.532 26.4467 133.546 26.18C133.626 25.1533 133.846 24.26 134.206 23.5C134.579 22.74 135.166 22.06 135.966 21.46C136.766 20.86 137.839 20.2867 139.186 19.74C139.906 19.46 140.619 19.2 141.326 18.96C142.046 18.72 142.812 18.4867 143.626 18.26V14.4C143.626 13.6 143.432 13.02 143.046 12.66C142.659 12.3 142.026 12.12 141.146 12.12C140.386 12.12 139.792 12.2733 139.366 12.58C138.952 12.8867 138.726 13.4133 138.686 14.16C138.672 14.4267 138.659 14.82 138.646 15.34C138.646 15.8467 138.646 16.34 138.646 16.82C138.659 17.3 138.672 17.6267 138.686 17.8H134.226C134.212 17.4267 134.199 16.9533 134.186 16.38C134.172 15.8067 134.172 15.2467 134.186 14.7C134.252 13.3 134.512 12.16 134.966 11.28C135.432 10.3867 136.172 9.72667 137.186 9.3C138.212 8.87333 139.586 8.66 141.306 8.66C143.052 8.66 144.419 8.89333 145.406 9.36C146.406 9.81333 147.106 10.54 147.506 11.54C147.919 12.5267 148.126 13.8133 148.126 15.4L148.106 33H143.546V30.58H142.866C142.439 31.4733 141.946 32.1467 141.386 32.6C140.839 33.0533 140.006 33.28 138.886 33.28ZM140.566 29.96C141.246 29.96 141.846 29.7867 142.366 29.44C142.886 29.0933 143.286 28.6133 143.566 28L143.606 21.5C143.072 21.6467 142.526 21.82 141.966 22.02C141.406 22.2067 140.839 22.4533 140.266 22.76C139.412 23.1733 138.852 23.6733 138.586 24.26C138.332 24.8333 138.192 25.4733 138.166 26.18C138.152 26.5267 138.146 26.8 138.146 27C138.159 27.2 138.172 27.44 138.186 27.72C138.252 28.4267 138.486 28.98 138.886 29.38C139.286 29.7667 139.846 29.96 140.566 29.96ZM161.418 17.78C161.431 17.4333 161.438 17.0467 161.438 16.62C161.451 16.18 161.451 15.7467 161.438 15.32C161.438 14.8933 161.431 14.52 161.418 14.2C161.391 13.4667 161.198 12.94 160.838 12.62C160.491 12.2867 159.858 12.12 158.938 12.12C158.031 12.12 157.391 12.28 157.018 12.6C156.658 12.92 156.465 13.46 156.438 14.22C156.398 15.4467 156.365 16.62 156.338 17.74C156.325 18.8467 156.318 19.9333 156.318 21C156.318 22.0667 156.325 23.1467 156.338 24.24C156.365 25.3333 156.398 26.48 156.438 27.68C156.465 28.48 156.671 29.0467 157.058 29.38C157.458 29.7133 158.105 29.88 158.998 29.88C159.905 29.88 160.525 29.7067 160.858 29.36C161.205 29 161.391 28.4333 161.418 27.66C161.445 27.18 161.458 26.6733 161.458 26.14C161.458 25.5933 161.445 24.9267 161.418 24.14H165.958C165.998 24.46 166.018 24.9333 166.018 25.56C166.031 26.1867 166.025 26.7267 165.998 27.18C165.905 29.3667 165.318 30.94 164.238 31.9C163.158 32.86 161.411 33.34 158.998 33.34C156.465 33.34 154.651 32.86 153.558 31.9C152.478 30.9267 151.878 29.3533 151.758 27.18C151.731 26.3933 151.705 25.4533 151.678 24.36C151.665 23.2667 151.658 22.1333 151.658 20.96C151.658 19.7733 151.665 18.6467 151.678 17.58C151.705 16.5133 151.731 15.6133 151.758 14.88C151.905 12.64 152.531 11.0467 153.638 10.1C154.758 9.14 156.525 8.66 158.938 8.66C161.378 8.66 163.145 9.13333 164.238 10.08C165.331 11.0133 165.918 12.5533 165.998 14.7C166.025 15.1933 166.031 15.7533 166.018 16.38C166.018 17.0067 165.998 17.4733 165.958 17.78H161.418ZM176.401 33.34C173.868 33.34 172.054 32.8533 170.961 31.88C169.881 30.9067 169.274 29.34 169.141 27.18C169.114 26.38 169.088 25.44 169.061 24.36C169.048 23.2667 169.041 22.1333 169.041 20.96C169.041 19.7867 169.048 18.6667 169.061 17.6C169.088 16.5333 169.114 15.6267 169.141 14.88C169.288 12.64 169.921 11.0467 171.041 10.1C172.161 9.14 173.928 8.66 176.341 8.66C178.781 8.66 180.541 9.13333 181.621 10.08C182.701 11.0267 183.294 12.5667 183.401 14.7C183.414 15.02 183.421 15.58 183.421 16.38C183.434 17.1667 183.434 18.0533 183.421 19.04C183.421 20.0267 183.401 20.9533 183.361 21.82H173.701C173.701 22.7533 173.708 23.7067 173.721 24.68C173.748 25.64 173.774 26.64 173.801 27.68C173.828 28.48 174.041 29.0467 174.441 29.38C174.841 29.7 175.488 29.86 176.381 29.86C177.248 29.86 177.854 29.7 178.201 29.38C178.561 29.0467 178.761 28.4733 178.801 27.66C178.828 27.26 178.841 26.7667 178.841 26.18C178.854 25.58 178.841 24.9 178.801 24.14H183.361C183.388 24.4467 183.408 24.92 183.421 25.56C183.434 26.2 183.428 26.74 183.401 27.18C183.294 29.38 182.701 30.96 181.621 31.92C180.554 32.8667 178.814 33.34 176.401 33.34ZM173.721 18.54H178.841C178.854 17.94 178.861 17.3467 178.861 16.76C178.861 16.16 178.854 15.6333 178.841 15.18C178.841 14.7267 178.828 14.4067 178.801 14.22C178.761 13.4467 178.548 12.9067 178.161 12.6C177.788 12.28 177.181 12.12 176.341 12.12C175.421 12.12 174.774 12.2933 174.401 12.64C174.028 12.9733 173.828 13.5 173.801 14.22C173.788 14.9533 173.768 15.68 173.741 16.4C173.728 17.12 173.721 17.8333 173.721 18.54Z" fill="white"/>
</svg>
